<?xml version="1.0" encoding="UTF-8"?>
<svg viewBox="27 25 629 513" xmlns="http://www.w3.org/2000/svg">
    <g>
        <path d="M655.974 25.083c-.035 45.151-.095 90.303-.1 135.454-.01 124.298.004 248.596.008 372.894v4.28H27.068c0-170.648 0-341.21.415-512.388 31.895-.708 63.376-.875 94.857-.877q254.615-.016 509.229.06c8.135.003 16.27.376 24.405.577m-268.33 312.06c.12-.38.24-.762.546-2.064.414-25.256-.986-50.293-9.18-74.483-10.43-30.784-28.123-56.242-55.952-73.63-43.196-26.987-89.915-30.654-137.94-17.338-40.823 11.32-70.65 37.277-88.806 75.588-16.116 34.006-19.973 69.898-12.24 106.738 9.116 43.432 31.417 78.445 72.179 97.454 63.638 29.677 126.204 26.198 185.5-13.106 11.22-7.437 20.96-16.744 29.689-27.472l-45.399-40.588c-1.302 1.155-2.285 2.008-3.247 2.884-12.87 11.714-27.509 20.349-44.218 25.363-24.92 7.477-49.535 7.67-73.587-3.365-22.703-10.416-35.266-34.728-35.317-55.811h4.419c40.319.015 80.637.072 120.956.033 30.647-.03 61.294-.18 92.598-.202m68.44 38.356v90.336h94.57V208.32H456.63c-.214.614-.412.916-.412 1.218-.054 54.988-.094 109.975-.133 165.962m56.171-197.524c19.671-5.529 30.948-20.002 30.826-39.564-.117-18.704-14.864-35.358-33.816-38.188-19.064-2.846-37.956 8.687-43.57 26.598-9.143 29.178 15.119 56.396 46.56 51.154m70.64-46.319c1.785 2.603 3.57 5.205 5.473 7.983-12.538 19.8-25.727 38.825-47.907 49.24 33.122-4.288 57.314-22.283 75.936-48.86-21.586-35.297-60.546-53.539-78.57-51.33 5.037 3.168 11.1 6.608 16.762 10.616 11.789 8.346 19.303 20.546 28.307 32.351m-154.992 21.93-9.8-14.176c14.843-19.582 27.668-40.853 51.466-51.328-34.41 4.753-60.017 22.742-78.515 51.518 15.311 25.84 56.338 52.657 75.592 48.635-16.947-7.377-28.399-19.897-38.743-34.65m140.591 3.03c3.06-10.642 2.367-21.353.41-32.043-.238-1.305-1.323-2.886-2.468-3.524-9.082-5.056-18.252-9.956-27.462-14.776-.988-.517-2.406-.213-4.074-.318 17.233 16.346 25.28 43.18-1.136 68.415 13.436-2.771 24.752-8.123 34.73-17.754m-119.22-41.85c-10.174 4.385-12.645 12.85-12.985 23.02-.422 12.603 2.3 23.171 15.003 28.643 6.855 2.953 13.81 5.673 20.719 8.498l.77-1.392c-10.142-8.445-15.789-19.245-16.48-32.293-.705-13.28 4.665-24.396 14.003-33.847l-1.141-1.517c-6.428 2.824-12.857 5.649-19.889 8.889" fill="#FDFDFD"/>
        <path d="M386.988 337.068c-30.647.097-61.294.249-91.941.278-40.319.04-80.637-.018-120.956-.033h-4.42c.052 21.083 12.615 45.395 35.318 55.81 24.052 11.035 48.668 10.843 73.587 3.366 16.71-5.014 31.349-13.649 44.218-25.363.962-.876 1.945-1.729 3.247-2.884l45.399 40.588c-8.73 10.728-18.469 20.035-29.689 27.472-59.296 39.304-121.862 42.783-185.5 13.106-40.762-19.01-63.063-54.022-72.18-97.454-7.732-36.84-3.875-72.732 12.24-106.738 18.157-38.31 47.984-64.268 88.807-75.588 48.025-13.316 94.744-9.65 137.94 17.339 27.829 17.387 45.522 42.845 55.951 73.63 8.195 24.189 9.595 49.226 8.868 75.068-.505.858-.697 1.13-.89 1.403m-87.373-59.155c-.227-1.312-.438-2.627-.684-3.935-3.512-18.718-11.905-34.111-29.457-43.283-8.717-4.556-18.112-6.62-27.816-7.076-20.974-.986-40.08 3.611-54.687 19.985-10.013 11.226-14.838 24.7-16.63 39.822h129.375c0-1.716 0-3.183-.101-5.513m46.634 33.104 10.293-.912c-.369-.753-1.793-2.49-1.962-4.343-.157-1.724.904-3.625 1.695-5.325.206-.443 1.99-.709 2.054-.575.67 1.383 1.328 2.829 1.602 4.328.267 1.453-.346 3.175.206 4.438.62 1.42 2.112 2.457 3.721 4.197-.35-4.585-1.488-7.942-.593-10.62 1.161-3.477.306-5.669-1.192-7.646l-10.553 6.225-4.588-2.827-1.151.717c4.085 4.008 3.093 7.862.468 12.343m-6.85-5.022 4.39-2.216c-1.204-1.841-2.008-4.579-3.698-5.332-3.2-1.425-6.605-.678-8.544 2.827-1.776 3.21-.457 8.93 2.658 10.022 1.992.698 4.523.425 6.65-.089.905-.218 1.392-2.164 2.07-3.325-6.576 2.864-6.576 2.864-8.297-1.606 1.366-.097 2.658-.188 4.772-.28m-20.43-11.027c4.022-.395 5.267 1.618 5.046 5.384-.223 3.78-.05 7.585-.05 11.38l2.73.112c.096-2.927.21-5.853.285-8.78.103-4.018-1.552-9.021 5.276-9.791h-14.063c.008.507.017 1.015.776 1.695" fill="#1D1D1C"/>
        <path d="M456.084 375c.04-55.487.08-110.474.134-165.462 0-.302.198-.604.412-1.218h94.025v257.516h-94.57z" fill="#1C1D1C"/>
        <path d="M511.84 178.048c-31.025 5.17-55.287-22.048-46.143-51.226 5.613-17.91 24.505-29.444 43.569-26.598 18.952 2.83 33.699 19.484 33.816 38.188.122 19.562-11.155 34.035-31.242 39.636m-29.8-32.864c3.29 12.345 16.959 19.621 29.819 14.611 11.089-4.32 16.524-16.323 12.737-27.44-3.819-11.21-15.557-17.362-27.241-14.277-11.6 3.062-18.077 14.066-15.315 27.106" fill="#222221"/>
        <path d="M582.683 131.366c-8.79-11.514-16.304-23.714-28.093-32.06-5.661-4.008-11.725-7.448-16.762-10.615 18.024-2.21 56.984 16.032 78.57 51.329-18.622 26.577-42.814 44.572-75.936 48.86 22.18-10.415 35.37-29.44 47.907-49.24-1.904-2.778-3.688-5.38-5.686-8.274" fill="#212121"/>
        <path d="M428.101 153.885c10.148 14.454 21.6 26.974 38.547 34.351-19.254 4.022-60.28-22.795-75.592-48.635 18.498-28.776 44.106-46.765 78.515-51.518-23.798 10.475-36.623 31.746-51.467 51.328 3.373 4.879 6.587 9.527 9.997 14.474" fill="#202020"/>
        <path d="M568.258 156.917c-9.74 9.33-21.056 14.682-34.492 17.453 26.416-25.234 18.369-52.07 1.136-68.415 1.668.105 3.086-.2 4.074.318 9.21 4.82 18.38 9.72 27.462 14.776 1.145.638 2.23 2.22 2.468 3.524 1.957 10.69 2.65 21.401-.648 32.344" fill="#222222"/>
        <path d="M449.578 114.56c6.73-3.033 13.159-5.858 19.587-8.682l1.14 1.517c-9.337 9.45-14.707 20.567-14.003 33.847.692 13.048 6.339 23.849 16.48 32.293l-.77 1.392c-6.909-2.825-13.863-5.545-20.718-8.498-12.704-5.472-15.425-16.04-15.003-28.643.34-10.17 2.81-18.635 13.287-23.227" fill="#212120"/>
        <path d="M387.316 337.106c-.136-.31.056-.583.468-.98.1.255-.02.636-.468.98" fill="#0E0E0E"/>
        <path d="M299.664 278.344c.05 1.899.05 3.366.05 5.082H170.342c1.791-15.122 6.616-28.596 16.63-39.822 14.606-16.374 33.712-20.971 54.686-19.985 9.704.457 19.099 2.52 27.816 7.076 17.552 9.172 25.945 24.565 29.457 43.283.246 1.308.457 2.623.734 4.366" fill="#FBFBFB"/>
        <path d="M346.192 310.677c2.681-4.141 3.673-7.995-.412-12.003l1.15-.717 4.59 2.827 10.552-6.225c1.498 1.977 2.353 4.17 1.192 7.646-.895 2.678.242 6.035.593 10.62-1.609-1.74-3.101-2.778-3.721-4.197-.552-1.263.06-2.985-.206-4.438-.274-1.5-.932-2.945-1.602-4.328-.065-.134-1.848.132-2.054.575-.79 1.7-1.852 3.6-1.695 5.325.169 1.852 1.593 3.59 1.962 4.343-3.716.33-7.004.621-10.349.572" fill="#040404"/>
        <path d="M338.988 305.996c-1.703.092-2.995.183-4.361.28 1.721 4.47 1.721 4.47 8.297 1.606-.678 1.161-1.165 3.107-2.07 3.325-2.127.514-4.658.787-6.65.089-3.115-1.092-4.434-6.813-2.658-10.022 1.94-3.505 5.345-4.252 8.544-2.827 1.69.753 2.494 3.49 3.698 5.332-1.463.74-2.926 1.478-4.8 2.217" fill="#040404"/>
        <path d="M318.594 294.883c-.384-.594-.393-1.102-.401-1.61h14.063c-6.828.77-5.173 5.774-5.276 9.792-.075 2.927-.189 5.853-.286 8.78l-2.728-.112c0-3.795-.174-7.6.049-11.38.22-3.766-1.024-5.779-5.421-5.47" fill="#030303"/>
        <path d="M481.956 144.784c-2.678-12.64 3.799-23.644 15.399-26.706 11.684-3.085 23.422 3.067 27.241 14.277 3.787 11.117-1.648 23.12-12.737 27.44-12.86 5.01-26.528-2.266-29.903-15.011" fill="#FBFBFB"/>
    </g>
</svg>
